<svg version="1.1" id="Layer_1" xmlns="http://www.w3.org/2000/svg" xmlns:xlink="http://www.w3.org/1999/xlink" x="0px" y="0px"
	 width="100%" viewBox="0 0 240 224" enable-background="new 0 0 240 224" xml:space="preserve">
<path fill="#000000" opacity="1.000000" stroke="none" 
	d="
M220.852097,131.583649 
	C208.632507,170.613220 184.486511,196.582474 143.276718,202.910126 
	C110.230614,207.984253 79.665413,201.569733 55.407051,176.813232 
	C35.860397,156.865204 29.251024,132.200043 32.402924,104.715477 
	C34.976372,82.274979 44.298054,62.898041 59.512657,46.398792 
	C91.019096,12.232105 138.763885,5.827673 178.294357,29.917561 
	C200.092529,43.201374 215.172714,61.780094 221.735718,86.800789 
	C225.638947,101.681419 224.744690,116.457977 220.852097,131.583649 
M62.169174,165.330826 
	C84.804474,188.513260 112.879593,194.423035 143.509354,189.272980 
	C196.673889,180.333939 216.167114,128.953445 208.384399,91.683311 
	C206.510742,82.710655 202.925079,74.337631 196.041962,66.112091 
	C190.389420,74.205406 184.280518,81.680679 182.197617,90.165291 
	C180.169449,98.426872 178.974365,108.005386 184.422348,116.569954 
	C181.944977,118.027534 179.222702,117.471397 176.698868,117.333725 
	C172.324310,117.095100 170.367386,118.322464 171.817154,123.035164 
	C172.656952,125.765137 172.348343,128.625610 171.802124,131.449982 
	C168.711121,147.432495 157.750931,155.419067 143.053101,159.147751 
	C138.170853,160.386322 135.110779,161.512665 136.772430,167.501556 
	C137.669861,170.736023 135.849457,173.622910 132.277176,174.042587 
	C128.922623,174.436722 126.562576,172.558441 125.775375,169.131454 
	C123.968681,161.266266 123.965012,161.405502 115.818192,160.280350 
	C105.707123,158.883881 96.502907,155.311798 88.985153,148.107971 
	C86.518227,145.744064 85.560242,142.960144 87.827362,140.144073 
	C90.079697,137.346344 92.941864,137.402954 95.730690,139.677628 
	C102.241844,144.988342 109.856247,147.651932 118.022987,149.070740 
	C123.052536,149.944534 123.966103,149.145401 123.554398,144.098160 
	C122.553856,131.832413 121.435005,119.571709 120.744011,107.287590 
	C120.471642,102.445549 118.457237,100.506424 113.761734,100.298813 
	C106.785011,99.990364 99.860603,99.134621 93.044342,97.450180 
	C78.647972,93.892532 74.269196,84.577095 80.605438,71.178261 
	C86.622452,58.454491 97.207481,51.559357 110.152306,47.686131 
	C113.447479,46.700176 115.334084,45.335899 115.045959,41.520927 
	C114.861145,39.073868 115.485298,36.561127 115.793137,34.083584 
	C115.925575,33.017746 116.473984,32.187016 117.609306,31.994364 
	C118.763039,31.798586 119.628731,32.450607 119.988770,33.411705 
	C120.862541,35.744164 121.790665,38.095882 122.277245,40.523933 
	C122.916237,43.712601 124.542091,44.864223 127.802933,44.848667 
	C133.126953,44.823269 138.446274,45.485420 143.591675,46.896091 
	C145.641312,47.458019 149.079514,47.275021 148.821304,50.387321 
	C148.580551,53.289326 145.403763,52.940529 143.162796,53.241745 
	C142.176987,53.374252 141.160828,53.265202 140.167572,53.360809 
	C135.458237,53.814117 130.752075,54.300213 125.944046,54.784771 
	C127.215858,65.991531 128.408508,76.535675 129.611465,87.078644 
	C129.951736,90.060913 131.310638,91.415596 134.611359,92.007957 
	C148.264236,94.458176 160.597427,99.411552 168.118088,112.196205 
	C168.541916,112.916710 169.225403,113.449539 170.626755,113.135223 
	C175.902939,93.311775 167.060577,77.850655 153.267944,62.750687 
	C159.916763,62.837109 164.910904,62.076660 169.575439,63.176361 
	C168.000259,72.931129 175.996506,77.800774 178.433670,85.504700 
	C185.286560,77.866615 189.284088,69.052643 188.800110,63.327473 
	C189.875275,62.111206 191.826920,63.351528 192.824646,61.910233 
	C189.189331,55.633179 179.654480,46.687752 169.008408,39.548634 
	C138.642273,19.185505 104.836800,20.024942 77.843971,42.358185 
	C58.475750,58.382996 47.567005,79.536743 44.562061,104.226791 
	C41.851700,126.496452 46.163410,147.395920 62.169174,165.330826 
M152.683411,144.249329 
	C160.697571,137.694489 163.472122,130.253998 160.786423,122.519630 
	C157.484344,113.010208 142.995163,103.337563 132.327728,103.650131 
	C131.708313,108.622536 132.889526,113.491898 133.300171,118.405655 
	C134.032562,127.169342 134.650421,135.942917 135.429749,144.702240 
	C135.860275,149.541061 137.105942,150.241852 142.006134,148.899231 
	C145.555252,147.926819 148.942322,146.589310 152.683411,144.249329 
M109.397743,88.867241 
	C110.379753,89.046753 111.357094,89.258766 112.344528,89.400429 
	C118.235779,90.245544 119.144783,89.466438 118.595642,83.461952 
	C118.096779,78.007179 117.225220,72.585968 116.750076,67.129753 
	C116.438019,63.546284 116.785004,59.878033 114.592056,56.062302 
	C103.149963,60.321198 94.540962,67.165047 90.189529,78.709396 
	C88.518303,83.143150 90.920273,85.474571 94.786491,86.389198 
	C99.301315,87.457268 103.939278,88.004791 109.397743,88.867241 
z"/>
</svg>